<svg width="121" height="39" viewBox="0 0 121 39" fill="none" xmlns="http://www.w3.org/2000/svg">
<g clip-path="url(#clip0_201_1574)">
<path d="M6.90625 33.2227H8.37109C8.32422 33.7812 8.16797 34.2793 7.90234 34.7168C7.63672 35.1504 7.26367 35.4922 6.7832 35.7422C6.30273 35.9922 5.71875 36.1172 5.03125 36.1172C4.50391 36.1172 4.0293 36.0234 3.60742 35.8359C3.18555 35.6445 2.82422 35.375 2.52344 35.0273C2.22266 34.6758 1.99219 34.252 1.83203 33.7559C1.67578 33.2598 1.59766 32.7051 1.59766 32.0918V31.3828C1.59766 30.7695 1.67773 30.2148 1.83789 29.7188C2.00195 29.2227 2.23633 28.7988 2.54102 28.4473C2.8457 28.0918 3.21094 27.8203 3.63672 27.6328C4.06641 27.4453 4.54883 27.3516 5.08398 27.3516C5.76367 27.3516 6.33789 27.4766 6.80664 27.7266C7.27539 27.9766 7.63867 28.3223 7.89648 28.7637C8.1582 29.2051 8.31836 29.7109 8.37695 30.2812H6.91211C6.87305 29.9141 6.78711 29.5996 6.6543 29.3379C6.52539 29.0762 6.33398 28.877 6.08008 28.7402C5.82617 28.5996 5.49414 28.5293 5.08398 28.5293C4.74805 28.5293 4.45508 28.5918 4.20508 28.7168C3.95508 28.8418 3.74609 29.0254 3.57812 29.2676C3.41016 29.5098 3.2832 29.8086 3.19727 30.1641C3.11523 30.5156 3.07422 30.918 3.07422 31.3711V32.0918C3.07422 32.5215 3.11133 32.9121 3.18555 33.2637C3.26367 33.6113 3.38086 33.9102 3.53711 34.1602C3.69727 34.4102 3.90039 34.6035 4.14648 34.7402C4.39258 34.877 4.6875 34.9453 5.03125 34.9453C5.44922 34.9453 5.78711 34.8789 6.04492 34.7461C6.30664 34.6133 6.50391 34.4199 6.63672 34.166C6.77344 33.9082 6.86328 33.5938 6.90625 33.2227ZM16.5098 31.5V31.9688C16.5098 32.6133 16.4258 33.1914 16.2578 33.7031C16.0898 34.2148 15.8496 34.6504 15.5371 35.0098C15.2285 35.3691 14.8574 35.6445 14.4238 35.8359C13.9902 36.0234 13.5098 36.1172 12.9824 36.1172C12.459 36.1172 11.9805 36.0234 11.5469 35.8359C11.1172 35.6445 10.7441 35.3691 10.4277 35.0098C10.1113 34.6504 9.86523 34.2148 9.68945 33.7031C9.51758 33.1914 9.43164 32.6133 9.43164 31.9688V31.5C9.43164 30.8555 9.51758 30.2793 9.68945 29.7715C9.86133 29.2598 10.1035 28.8242 10.416 28.4648C10.7324 28.1016 11.1055 27.8262 11.5352 27.6387C11.9688 27.4473 12.4473 27.3516 12.9707 27.3516C13.498 27.3516 13.9785 27.4473 14.4121 27.6387C14.8457 27.8262 15.2188 28.1016 15.5312 28.4648C15.8438 28.8242 16.084 29.2598 16.252 29.7715C16.4238 30.2793 16.5098 30.8555 16.5098 31.5ZM15.0391 31.9688V31.4883C15.0391 31.0117 14.9922 30.5918 14.8984 30.2285C14.8086 29.8613 14.6738 29.5547 14.4941 29.3086C14.3184 29.0586 14.1016 28.8711 13.8438 28.7461C13.5859 28.6172 13.2949 28.5527 12.9707 28.5527C12.6465 28.5527 12.3574 28.6172 12.1035 28.7461C11.8496 28.8711 11.6328 29.0586 11.4531 29.3086C11.2773 29.5547 11.1426 29.8613 11.0488 30.2285C10.9551 30.5918 10.9082 31.0117 10.9082 31.4883V31.9688C10.9082 32.4453 10.9551 32.8672 11.0488 33.2344C11.1426 33.6016 11.2793 33.9121 11.459 34.166C11.6426 34.416 11.8613 34.6055 12.1152 34.7344C12.3691 34.8594 12.6582 34.9219 12.9824 34.9219C13.3105 34.9219 13.6016 34.8594 13.8555 34.7344C14.1094 34.6055 14.3242 34.416 14.5 34.166C14.6758 33.9121 14.8086 33.6016 14.8984 33.2344C14.9922 32.8672 15.0391 32.4453 15.0391 31.9688ZM18.5781 27.4688H19.8906L22.3574 34.0488L24.8184 27.4688H26.1309L22.873 36H21.8301L18.5781 27.4688ZM17.9805 27.4688H19.2285L19.4453 33.1641V36H17.9805V27.4688ZM25.4805 27.4688H26.7344V36H25.2637V33.1641L25.4805 27.4688ZM29.0781 27.4688H30.3906L32.8574 34.0488L35.3184 27.4688H36.6309L33.373 36H32.3301L29.0781 27.4688ZM28.4805 27.4688H29.7285L29.9453 33.1641V36H28.4805V27.4688ZM35.9805 27.4688H37.2344V36H35.7637V33.1641L35.9805 27.4688ZM43.7676 27.4688H45.2324V33.1699C45.2324 33.8184 45.0918 34.3613 44.8105 34.7988C44.5293 35.2363 44.1465 35.5664 43.6621 35.7891C43.1816 36.0078 42.6445 36.1172 42.0508 36.1172C41.4375 36.1172 40.8906 36.0078 40.4102 35.7891C39.9297 35.5664 39.5508 35.2363 39.2734 34.7988C39 34.3613 38.8633 33.8184 38.8633 33.1699V27.4688H40.3281V33.1699C40.3281 33.5801 40.3984 33.918 40.5391 34.1836C40.6797 34.4453 40.8789 34.6387 41.1367 34.7637C41.3945 34.8887 41.6992 34.9512 42.0508 34.9512C42.4023 34.9512 42.7051 34.8887 42.959 34.7637C43.2168 34.6387 43.416 34.4453 43.5566 34.1836C43.6973 33.918 43.7676 33.5801 43.7676 33.1699V27.4688ZM53.5996 27.4688V36H52.1289L48.3027 29.8887V36H46.832V27.4688H48.3027L52.1406 33.5918V27.4688H53.5996ZM56.9219 27.4688V36H55.4512V27.4688H56.9219ZM62.084 27.4688V36H60.625V27.4688H62.084ZM64.7617 27.4688V28.6406H57.9707V27.4688H64.7617ZM66.7949 27.4688L68.7754 31.541L70.7559 27.4688H72.3848L69.5137 32.8594V36H68.0312V32.8594L65.1602 27.4688H66.7949ZM79.5449 32.8184H77.3242V31.6523H79.5449C79.9316 31.6523 80.2441 31.5898 80.4824 31.4648C80.7207 31.3398 80.8945 31.168 81.0039 30.9492C81.1172 30.7266 81.1738 30.4727 81.1738 30.1875C81.1738 29.918 81.1172 29.666 81.0039 29.4316C80.8945 29.1934 80.7207 29.002 80.4824 28.8574C80.2441 28.7129 79.9316 28.6406 79.5449 28.6406H77.7754V36H76.3047V27.4688H79.5449C80.2051 27.4688 80.7656 27.5859 81.2266 27.8203C81.6914 28.0508 82.0449 28.3711 82.2871 28.7812C82.5293 29.1875 82.6504 29.6523 82.6504 30.1758C82.6504 30.7266 82.5293 31.1992 82.2871 31.5938C82.0449 31.9883 81.6914 32.291 81.2266 32.502C80.7656 32.7129 80.2051 32.8184 79.5449 32.8184ZM90.7715 31.5V31.9688C90.7715 32.6133 90.6875 33.1914 90.5195 33.7031C90.3516 34.2148 90.1113 34.6504 89.7988 35.0098C89.4902 35.3691 89.1191 35.6445 88.6855 35.8359C88.252 36.0234 87.7715 36.1172 87.2441 36.1172C86.7207 36.1172 86.2422 36.0234 85.8086 35.8359C85.3789 35.6445 85.0059 35.3691 84.6895 35.0098C84.373 34.6504 84.127 34.2148 83.9512 33.7031C83.7793 33.1914 83.6934 32.6133 83.6934 31.9688V31.5C83.6934 30.8555 83.7793 30.2793 83.9512 29.7715C84.123 29.2598 84.3652 28.8242 84.6777 28.4648C84.9941 28.1016 85.3672 27.8262 85.7969 27.6387C86.2305 27.4473 86.709 27.3516 87.2324 27.3516C87.7598 27.3516 88.2402 27.4473 88.6738 27.6387C89.1074 27.8262 89.4805 28.1016 89.793 28.4648C90.1055 28.8242 90.3457 29.2598 90.5137 29.7715C90.6855 30.2793 90.7715 30.8555 90.7715 31.5ZM89.3008 31.9688V31.4883C89.3008 31.0117 89.2539 30.5918 89.1602 30.2285C89.0703 29.8613 88.9355 29.5547 88.7559 29.3086C88.5801 29.0586 88.3633 28.8711 88.1055 28.7461C87.8477 28.6172 87.5566 28.5527 87.2324 28.5527C86.9082 28.5527 86.6191 28.6172 86.3652 28.7461C86.1113 28.8711 85.8945 29.0586 85.7148 29.3086C85.5391 29.5547 85.4043 29.8613 85.3105 30.2285C85.2168 30.5918 85.1699 31.0117 85.1699 31.4883V31.9688C85.1699 32.4453 85.2168 32.8672 85.3105 33.2344C85.4043 33.6016 85.541 33.9121 85.7207 34.166C85.9043 34.416 86.123 34.6055 86.377 34.7344C86.6309 34.8594 86.9199 34.9219 87.2441 34.9219C87.5723 34.9219 87.8633 34.8594 88.1172 34.7344C88.3711 34.6055 88.5859 34.416 88.7617 34.166C88.9375 33.9121 89.0703 33.6016 89.1602 33.2344C89.2539 32.8672 89.3008 32.4453 89.3008 31.9688ZM92.2422 27.4688H95.2598C95.9082 27.4688 96.4609 27.5664 96.918 27.7617C97.375 27.957 97.7246 28.2461 97.9668 28.6289C98.2129 29.0078 98.3359 29.4766 98.3359 30.0352C98.3359 30.4609 98.2578 30.8359 98.1016 31.1602C97.9453 31.4844 97.7246 31.7578 97.4395 31.9805C97.1543 32.1992 96.8145 32.3691 96.4199 32.4902L95.9746 32.707H93.2617L93.25 31.541H95.2832C95.6348 31.541 95.9277 31.4785 96.1621 31.3535C96.3965 31.2285 96.5723 31.0586 96.6895 30.8438C96.8105 30.625 96.8711 30.3789 96.8711 30.1055C96.8711 29.8086 96.8125 29.5508 96.6953 29.332C96.582 29.1094 96.4062 28.9395 96.168 28.8223C95.9297 28.7012 95.627 28.6406 95.2598 28.6406H93.7129V36H92.2422V27.4688ZM97.1113 36L95.1074 32.168L96.6484 32.1621L98.6816 35.9238V36H97.1113ZM102.912 27.4688V36H101.453V27.4688H102.912ZM105.59 27.4688V28.6406H98.7988V27.4688H105.59ZM109.475 28.6055L106.926 36H105.385L108.596 27.4688H109.58L109.475 28.6055ZM111.607 36L109.053 28.6055L108.941 27.4688H109.932L113.154 36H111.607ZM111.484 32.8359V34.002H106.844V32.8359H111.484ZM119.453 34.834V36H115.17V34.834H119.453ZM115.58 27.4688V36H114.109V27.4688H115.58Z" fill="#745353"/>
<path d="M73.2769 23.359H71.396C71.324 23.345 71.253 23.326 71.18 23.317C71.107 23.308 71.053 23.317 70.992 23.31C70.755 23.266 70.518 23.222 70.283 23.167C69.983 23.097 69.6831 23.029 69.3831 22.937C69.0831 22.845 68.7829 22.73 68.4939 22.608C68.1012 22.4475 67.7256 22.2486 67.3721 22.014C67.0511 21.798 66.7261 21.588 66.4261 21.345C66.1261 21.102 65.8711 20.84 65.6011 20.579C65.5016 20.4759 65.4072 20.3678 65.3189 20.255C65.2317 20.1576 65.1498 20.0558 65.073 19.95C64.892 19.683 64.7039 19.42 64.5459 19.139C64.3549 18.798 64.1881 18.439 64.0181 18.089C63.9391 17.925 63.8781 17.752 63.8091 17.583H63.7749V22.995C63.4879 23.037 59.1499 23.023 59.0049 22.978V9.043C58.9297 9.10855 58.8654 9.18548 58.814 9.271L54.9629 15.114C54.6963 15.5193 54.4295 15.9243 54.1629 16.329L53.4439 17.418C53.3069 17.625 53.174 17.835 53.034 18.041C52.934 18.188 52.8541 18.184 52.7571 18.041C52.4051 17.5077 52.0527 16.972 51.7 16.434L49.8721 13.667C49.4641 13.049 49.0569 12.431 48.6509 11.813C48.3509 11.366 48.057 10.922 47.762 10.475C47.479 10.045 47.1991 9.61301 46.9161 9.18201C46.8967 9.16124 46.8752 9.14247 46.8521 9.126V22.765C46.8521 23.017 46.8521 23.018 46.6031 23.018H42.1431V1.35001H47.076C47.114 1.35001 47.151 1.35001 47.189 1.35001C47.2202 1.34682 47.2516 1.35313 47.2791 1.36812C47.3066 1.38312 47.3289 1.40609 47.3431 1.43401C47.5541 1.77901 47.769 2.12201 47.981 2.46601C48.334 3.03701 48.6809 3.609 49.0379 4.18C49.5239 4.96266 50.0111 5.74467 50.4991 6.52601C50.8511 7.09101 51.1991 7.659 51.5511 8.226C51.9191 8.818 52.2883 9.40934 52.659 10C52.753 10.151 52.849 10.3 52.959 10.473C53.092 10.255 53.2101 10.059 53.3311 9.866C53.6811 9.307 54.0311 8.75001 54.3821 8.19001C54.7821 7.54001 55.1819 6.89 55.5879 6.236C55.9939 5.582 56.3961 4.93601 56.8011 4.28701L57.472 3.21001C57.825 2.64501 58.1829 2.084 58.5259 1.51C58.5499 1.45759 58.5895 1.41385 58.6392 1.38469C58.6889 1.35554 58.7465 1.34238 58.804 1.34701C60.3967 1.35167 61.9891 1.35167 63.5811 1.34701H63.773V10.667C63.773 10.893 63.773 11.118 63.773 11.344C63.7668 11.5579 63.7735 11.7719 63.793 11.985C63.877 11.809 63.9429 11.632 64.0149 11.456C64.2105 10.9624 64.4618 10.4927 64.764 10.056C64.9671 9.74323 65.1918 9.44485 65.4361 9.163C65.8262 8.72276 66.2559 8.31939 66.72 7.958C67.0618 7.6987 67.422 7.46475 67.7979 7.258C68.1828 7.05376 68.5798 6.87244 68.9861 6.715C69.3505 6.57582 69.7232 6.4596 70.1021 6.36701C70.4021 6.29101 70.723 6.267 71.033 6.208C71.3832 6.14566 71.7383 6.11521 72.094 6.11701C72.37 6.11701 72.6459 6.11701 72.9219 6.11701C72.9719 6.11364 73.0221 6.11364 73.0721 6.11701C73.4101 6.16301 73.749 6.201 74.085 6.262C74.421 6.323 74.763 6.39401 75.095 6.48801C75.7415 6.67079 76.3646 6.92782 76.9519 7.254C77.5809 7.609 78.1676 8.03403 78.701 8.521C78.9812 8.78842 79.2413 9.07621 79.479 9.38201C79.8115 9.78454 80.1016 10.2202 80.345 10.682C80.6285 11.2006 80.847 11.7521 80.9959 12.324C81.0019 12.349 81.041 12.365 81.065 12.386C81.128 12.138 81.1851 11.905 81.2481 11.673C81.3586 11.2735 81.5027 10.8841 81.679 10.509C81.8987 9.99951 82.179 9.51837 82.514 9.07601C82.696 8.84801 82.8709 8.612 83.0669 8.396C83.3983 8.03797 83.7672 7.71647 84.167 7.437C84.6855 7.06703 85.2515 6.76899 85.8499 6.551C86.3005 6.37722 86.7708 6.25934 87.25 6.2C87.528 6.17 87.805 6.11901 88.083 6.11501C88.4643 6.09255 88.8469 6.10425 89.2261 6.15C89.4331 6.184 89.6409 6.20701 89.8479 6.25001C90.236 6.33013 90.6159 6.44561 90.9829 6.59501C91.6408 6.86658 92.2458 7.25179 92.7701 7.73301C93.0301 7.96501 93.2539 8.233 93.4949 8.489C93.4999 8.495 93.5181 8.489 93.5511 8.489V0.476003C93.7981 0.434003 98.1509 0.445012 98.2959 0.488012V15.651C98.3379 15.589 98.3559 15.566 98.3699 15.541C98.5419 15.2373 98.7502 14.9556 98.99 14.702C99.1986 14.4862 99.4265 14.2901 99.6709 14.116C100.065 13.8297 100.497 13.6004 100.955 13.435C101.24 13.335 101.529 13.235 101.821 13.159C102.071 13.091 102.326 13.042 102.582 12.998C102.771 12.966 102.966 12.967 103.155 12.934C103.555 12.864 103.962 12.885 104.366 12.854C104.637 12.833 104.913 12.886 105.187 12.891C105.523 12.8943 105.857 12.9278 106.187 12.991C106.477 13.05 106.772 13.084 107.062 13.144C107.303 13.194 107.541 13.261 107.779 13.326C107.998 13.386 108.216 13.452 108.445 13.519C108.483 13.0495 108.424 12.5773 108.274 12.131C108.159 11.7732 107.961 11.4474 107.697 11.18C107.455 10.9337 107.161 10.7448 106.837 10.627C106.603 10.546 106.362 10.489 106.127 10.413C105.822 10.3313 105.507 10.2899 105.191 10.29C104.719 10.267 104.245 10.314 103.772 10.331H103.753C103.46 10.379 103.166 10.42 102.875 10.477C102.53 10.545 102.183 10.609 101.846 10.705C101.388 10.834 100.937 10.991 100.483 11.136C100.36 11.175 100.327 11.161 100.289 11.044C100.231 10.86 100.179 10.675 100.118 10.492C99.883 9.78301 99.645 9.07501 99.41 8.36501C99.323 8.10101 99.2401 7.83601 99.1531 7.56501C99.4991 7.42401 99.826 7.27301 100.166 7.15601C100.639 6.99101 101.118 6.841 101.6 6.704C101.9 6.618 102.214 6.564 102.522 6.504C102.783 6.452 103.044 6.39601 103.307 6.36301C103.607 6.32501 103.907 6.30201 104.213 6.27201C104.571 6.23601 104.933 6.26201 105.295 6.22001C105.649 6.19557 106.006 6.20964 106.357 6.262C106.623 6.289 106.89 6.297 107.157 6.314C107.176 6.31668 107.194 6.32035 107.212 6.325L107.685 6.411C107.887 6.43948 108.087 6.47889 108.285 6.52901C108.658 6.64201 109.029 6.76301 109.392 6.90301C110.098 7.17688 110.737 7.59943 111.266 8.142C111.667 8.55473 111.999 9.02951 112.249 9.54801C112.453 9.96606 112.611 10.4045 112.722 10.856C112.785 11.107 112.822 11.363 112.871 11.619C112.896 11.759 112.908 11.902 112.924 12.044C112.969 12.3185 112.999 12.5952 113.013 12.873C113.019 16.1957 113.019 19.5187 113.013 22.842C113.013 22.896 113.005 22.951 113.002 23.005H108.44C108.425 22.805 108.434 22.622 108.432 22.437C108.43 22.252 108.432 22.048 108.432 21.854V21.288C108.39 21.303 108.369 21.304 108.358 21.315C108.158 21.506 107.978 21.715 107.767 21.886C107.397 22.1918 106.992 22.4514 106.559 22.659C106.142 22.8655 105.7 23.0197 105.245 23.118C105.057 23.156 104.869 23.191 104.679 23.218C104.417 23.2659 104.151 23.2963 103.885 23.309C103.454 23.3389 103.021 23.3248 102.593 23.267C102.338 23.216 102.072 23.218 101.822 23.156C101.282 23.0323 100.761 22.8393 100.27 22.582C99.9798 22.4354 99.7084 22.2541 99.462 22.042C99.2282 21.8359 99.0073 21.6158 98.8001 21.383C98.6329 21.1672 98.477 20.9429 98.333 20.711C98.328 20.704 98.3111 20.705 98.3001 20.703C98.2891 20.701 98.284 20.722 98.284 20.731C98.284 21.427 98.2861 22.1227 98.2901 22.818C98.2901 23.011 98.2839 23.018 98.0899 23.018H93.708C93.66 23.018 93.6079 23.009 93.5469 23.003V21.865C93.5469 21.671 93.5469 21.476 93.5469 21.282C93.5469 21.088 93.5469 20.915 93.5469 20.732C93.4049 20.859 93.31 21.006 93.189 21.127C92.8385 21.5103 92.4568 21.8638 92.0479 22.184C91.5956 22.5153 91.0974 22.7788 90.5689 22.966C89.9755 23.1644 89.3578 23.2804 88.7329 23.311C88.3524 23.3321 87.9707 23.3167 87.5931 23.265C87.4251 23.227 87.245 23.241 87.076 23.204C86.6509 23.1177 86.233 22.999 85.826 22.849C85.359 22.6765 84.9128 22.4521 84.4959 22.18C84.2429 22.01 83.996 21.836 83.752 21.648C83.5603 21.498 83.3795 21.3346 83.211 21.159C83.03 20.97 82.8649 20.766 82.7039 20.559C82.5429 20.352 82.3809 20.134 82.2339 19.912C81.9695 19.5188 81.7509 19.0968 81.5821 18.654C81.4441 18.284 81.3249 17.906 81.2039 17.53C81.1519 17.369 81.1169 17.202 81.0679 17.013C81.0408 17.0411 81.0177 17.0727 80.9991 17.107C80.9251 17.336 80.8661 17.571 80.7801 17.795C80.5817 18.3128 80.3335 18.8101 80.0391 19.28C79.7767 19.6978 79.4792 20.0926 79.1499 20.46C78.6845 20.9763 78.1568 21.4327 77.5789 21.819C77.0083 22.2113 76.3901 22.5292 75.7391 22.765C75.3208 22.9183 74.894 23.0475 74.461 23.152C74.1138 23.2458 73.7573 23.3008 73.398 23.316C73.3556 23.3236 73.3146 23.3381 73.2769 23.359ZM76.627 14.803C76.6478 14.3648 76.5995 13.9262 76.4839 13.503C76.3608 13.0081 76.1531 12.5382 75.8699 12.114C75.6447 11.7617 75.3661 11.4466 75.044 11.18C74.8115 10.9922 74.5633 10.825 74.302 10.68C73.7467 10.3994 73.1394 10.237 72.5181 10.203C72.1695 10.1903 71.8205 10.2174 71.4781 10.284C71.1223 10.3385 70.776 10.4436 70.45 10.596C69.8606 10.8722 69.3492 11.2908 68.962 11.814C68.7003 12.1633 68.4927 12.55 68.346 12.961C68.2527 13.2035 68.1872 13.4557 68.1509 13.713C68.1085 13.9372 68.0783 14.1635 68.0601 14.391C68.0278 14.7334 68.0422 15.0785 68.1031 15.417C68.1391 15.554 68.134 15.701 68.167 15.839C68.2704 16.2812 68.434 16.7072 68.6531 17.105C68.9384 17.6275 69.3293 18.0849 69.8011 18.448C70.1503 18.7104 70.5382 18.9169 70.951 19.06C71.3203 19.1893 71.7055 19.2677 72.096 19.293C72.5818 19.3233 73.0693 19.2757 73.5401 19.152C74.1911 18.9935 74.7891 18.6674 75.2749 18.206C75.4259 18.0569 75.5678 17.899 75.7 17.733C75.8907 17.4952 76.0515 17.2349 76.179 16.958C76.323 16.664 76.4323 16.3542 76.5049 16.035C76.5575 15.8041 76.5967 15.5704 76.6221 15.335C76.6332 15.1579 76.6347 14.9803 76.627 14.803ZM93.6141 14.717C93.6074 14.368 93.5739 14.0199 93.514 13.676C93.4492 13.2923 93.3393 12.9177 93.1861 12.56C92.8995 11.8987 92.4463 11.323 91.8709 10.889C91.295 10.459 90.6095 10.2004 89.8931 10.143C89.4946 10.1076 89.093 10.1414 88.7061 10.243C88.0694 10.4002 87.4825 10.7149 86.9991 11.158C86.8751 11.27 86.7789 11.412 86.6619 11.532C86.4713 11.738 86.3107 11.9695 86.1841 12.22C85.9163 12.7178 85.7405 13.2598 85.6651 13.82C85.6217 14.1339 85.597 14.4502 85.5911 14.767C85.5924 14.9411 85.6031 15.115 85.6231 15.288C85.633 15.4559 85.6541 15.6229 85.6861 15.788C85.7641 16.1504 85.8741 16.5051 86.0149 16.848C86.1608 17.199 86.3572 17.5268 86.5979 17.821C86.9932 18.3159 87.5005 18.7098 88.0779 18.97C88.4771 19.1417 88.9012 19.2487 89.334 19.287C89.7878 19.3247 90.2446 19.2755 90.68 19.142C91.1618 19.0099 91.6093 18.7752 91.992 18.454C92.2984 18.1968 92.5693 17.9003 92.7979 17.572C93.187 16.9803 93.4434 16.3113 93.5491 15.611C93.5857 15.3143 93.6074 15.0159 93.6141 14.717ZM105.578 15.744C105.18 15.7253 104.781 15.7562 104.39 15.836C103.969 15.9145 103.566 16.0709 103.202 16.297C102.912 16.484 102.679 16.7483 102.531 17.06C102.334 17.5132 102.284 18.017 102.389 18.5C102.435 18.7199 102.525 18.9282 102.654 19.1125C102.782 19.2969 102.947 19.4535 103.137 19.573C103.548 19.8454 104.025 20.0016 104.518 20.025C105.177 20.0812 105.841 19.9984 106.466 19.782C107.142 19.5775 107.726 19.1454 108.119 18.559C108.371 18.1854 108.505 17.7454 108.506 17.295C108.506 17.0383 108.506 16.7813 108.506 16.524C108.506 16.324 108.489 16.307 108.306 16.239C107.815 16.0488 107.305 15.9124 106.784 15.832C106.479 15.776 106.169 15.7459 105.859 15.742C105.766 15.746 105.672 15.744 105.578 15.744Z" fill="black"/>
<path d="M20.232 1.216C26.2693 1.216 32.3063 1.216 38.343 1.216C38.514 1.21405 38.6835 1.24662 38.8416 1.31174C38.9997 1.37686 39.143 1.4732 39.263 1.595C39.4328 1.75696 39.5649 1.95429 39.65 2.173C39.6802 2.27332 39.6997 2.37657 39.708 2.481C39.7112 2.52461 39.7112 2.56839 39.708 2.612C39.708 8.994 39.708 15.376 39.708 21.758C39.695 22.0643 39.5865 22.3589 39.3977 22.6005C39.2088 22.842 38.9491 23.0185 38.655 23.105C38.5042 23.1404 38.3499 23.1585 38.195 23.159H2.195C1.99288 23.1586 1.79303 23.1163 1.60803 23.0349C1.42302 22.9535 1.25687 22.8347 1.12 22.686C1.01351 22.5606 0.919716 22.4249 0.839997 22.281C0.824997 22.258 0.833002 22.221 0.832002 22.19C0.832002 22.109 0.832002 22.027 0.832002 21.946C0.832002 15.4327 0.829997 8.91934 0.825997 2.40601C0.824942 2.14668 0.922128 1.89658 1.098 1.70601C1.27392 1.48607 1.51753 1.33034 1.791 1.263C1.91592 1.23122 2.04412 1.21411 2.173 1.21201L20.232 1.216ZM36.61 13.016C36.61 12.622 36.61 12.253 36.61 11.884C36.6104 11.8777 36.6104 11.8713 36.61 11.865C36.582 11.637 36.556 11.409 36.526 11.181C36.5 10.986 36.473 10.792 36.441 10.598C36.409 10.404 36.367 10.227 36.323 10.043C36.264 9.794 36.203 9.54301 36.123 9.30301C36.0216 8.95097 35.8933 8.60728 35.739 8.27501C35.558 7.90401 35.373 7.535 35.17 7.175C35.0337 6.94065 34.8803 6.7167 34.711 6.505C34.563 6.316 34.381 6.153 34.226 5.968C33.913 5.60478 33.5532 5.28466 33.156 5.01601C32.6493 4.65806 32.0975 4.36855 31.515 4.155C31.1179 4.0036 30.7074 3.88977 30.289 3.815C30.1963 3.81631 30.104 3.80212 30.016 3.77301C29.854 3.67301 29.675 3.72201 29.507 3.68201C29.2616 3.63803 29.012 3.62226 28.763 3.63501C28.533 3.63501 28.303 3.665 28.072 3.668C27.7446 3.675 27.4184 3.71014 27.097 3.77301C26.837 3.82001 26.577 3.86701 26.321 3.93001C26.1414 3.9714 25.9644 4.02349 25.791 4.086C25.497 4.198 25.204 4.315 24.92 4.448C24.6446 4.57623 24.3759 4.71842 24.115 4.87401C23.7861 5.0611 23.4772 5.28124 23.193 5.53101C23.011 5.69801 22.811 5.84701 22.632 6.01801C22.4961 6.1544 22.3676 6.29793 22.247 6.448C22.083 6.641 21.912 6.83 21.767 7.037C21.599 7.277 21.467 7.537 21.302 7.783C21.1093 8.09145 20.9494 8.41924 20.825 8.761C20.749 8.948 20.692 9.14201 20.625 9.33301C20.556 9.54101 20.475 9.74601 20.425 9.95801C20.337 10.318 20.308 10.689 20.242 11.058C20.196 11.312 20.229 11.577 20.191 11.838C20.1681 12.0361 20.1789 12.2366 20.223 12.431C20.271 12.678 20.242 12.931 20.285 13.19C20.328 13.449 20.36 13.69 20.408 13.933C20.459 14.195 20.556 14.449 20.633 14.706C20.7752 15.2149 20.9861 15.7021 21.26 16.154C21.388 16.36 21.514 16.568 21.641 16.775C21.8192 17.0536 22.0199 17.3171 22.241 17.563C22.5178 17.8687 22.8187 18.1516 23.141 18.409C23.3954 18.6165 23.6652 18.8043 23.948 18.971C24.2801 19.1759 24.6244 19.3603 24.979 19.523C25.3546 19.6956 25.7444 19.8354 26.144 19.941C26.444 20.016 26.738 20.104 27.044 20.157C27.3904 20.2248 27.7414 20.2666 28.094 20.282C28.8274 20.3085 29.5617 20.2978 30.294 20.25C30.3063 20.2515 30.3187 20.2515 30.331 20.25C30.589 20.16 30.867 20.194 31.131 20.109C31.395 20.024 31.65 20.003 31.904 19.929C32.2232 19.839 32.5371 19.7308 32.844 19.605C33.1518 19.4707 33.4522 19.3202 33.744 19.154C33.9596 19.0314 34.1689 18.8979 34.371 18.754C34.5465 18.6365 34.7136 18.5068 34.871 18.366C35.114 18.14 35.342 17.899 35.571 17.666C35.6031 17.6282 35.6328 17.5884 35.66 17.547C35.473 17.37 35.29 17.202 35.114 17.027C34.771 16.688 34.433 16.345 34.092 16.003C34.023 15.934 33.952 15.866 33.871 15.787C33.8015 15.8833 33.726 15.9752 33.645 16.062C33.4619 16.2402 33.27 16.4091 33.07 16.568C32.849 16.738 32.612 16.887 32.377 17.04C31.9632 17.2974 31.5108 17.4868 31.037 17.601C30.888 17.64 30.737 17.673 30.588 17.707C30.4526 17.7453 30.315 17.7754 30.176 17.797C29.947 17.821 29.716 17.825 29.486 17.839C29.4553 17.8426 29.4249 17.8482 29.395 17.856C29.3252 17.8784 29.2531 17.8928 29.18 17.899C28.8883 17.9013 28.5968 17.8856 28.307 17.852C27.961 17.798 27.607 17.779 27.265 17.698C26.8379 17.6042 26.4241 17.4577 26.033 17.262C25.624 17.0654 25.2506 16.8022 24.928 16.483C24.7303 16.2936 24.5433 16.0933 24.368 15.883C24.2269 15.7031 24.0973 15.5144 23.98 15.318C23.6617 14.7691 23.4351 14.1719 23.309 13.55C23.2487 13.3825 23.2386 13.2011 23.28 13.028L36.61 13.016Z" fill="#D8493B"/>
<path d="M114.178 0.468002H118.843C118.884 0.611002 118.904 22.54 118.864 22.987C118.734 23.026 114.522 23.043 114.195 23.005C114.156 22.872 114.136 0.873002 114.178 0.468002Z" fill="black"/>
<path d="M23.356 10.669C23.3223 10.567 23.3248 10.4564 23.363 10.356C23.3946 10.2633 23.4178 10.1679 23.4321 10.071C23.5052 9.75775 23.6076 9.45205 23.738 9.15799C23.8821 8.83258 24.0583 8.52238 24.264 8.23199C24.5119 7.86176 24.8125 7.52962 25.1561 7.246C25.4044 7.03968 25.6723 6.85815 25.956 6.70401C26.3502 6.49955 26.7671 6.34214 27.1981 6.23501C27.8363 6.09771 28.4909 6.05224 29.142 6.1C29.4429 6.11823 29.7407 6.17022 30.03 6.255C30.3156 6.33081 30.5949 6.42913 30.8651 6.54901C31.168 6.69097 31.4532 6.86781 31.715 7.07598C32.175 7.42846 32.5622 7.86693 32.8551 8.367C33.0707 8.72522 33.2409 9.10882 33.362 9.509C33.4643 9.79413 33.5315 10.0906 33.5621 10.392C33.5621 10.415 33.584 10.436 33.593 10.459C33.637 10.577 33.593 10.653 33.47 10.668C33.4261 10.6707 33.382 10.6707 33.3381 10.668H23.3601L23.356 10.669Z" fill="#D8493B"/>
</g>
<defs>
<clipPath id="clip0_201_1574">
<rect width="121" height="39" fill="white"/>
</clipPath>
</defs>
</svg>
